<?xml version="1.0" encoding="UTF-8"?>
<svg id="Layer_2" data-name="Layer 2" xmlns="http://www.w3.org/2000/svg" viewBox="0 0 43.43 37.88">
  <defs>
    <style>
      .cls-1 {
        fill: #fff;
      }
    </style>
  </defs>
  <g id="Layer_1-2" data-name="Layer 1">
    <path class="cls-1" d="M.29,29.06c-1.44-6.14,2.58-12.52,8.99-13.66,2.97-.53,5.91.12,8.42,1.95V4.89c0-2.86,2.3-4.88,5.11-4.87l-.02,26.77c0,3.08-1.36,5.96-3.61,8.04-3.07,2.83-7.44,3.78-11.52,2.37-3.56-1.23-6.45-4.27-7.36-8.15ZM10.68,20.36c-3.47.41-5.84,3.54-5.44,6.91s3.52,5.82,6.89,5.42c3.37-.4,5.82-3.46,5.45-6.84s-3.44-5.9-6.9-5.49Z"/>
    <path class="cls-1" d="M28.97,10.29l-.02,19.52c0,1.88-.88,3.65-2.19,4.9l-.92.75c2.07-.78,3.5-2.53,5.87-2.53h11.72c-.2,1.13-.67,2.16-1.42,3.03-1.06,1.19-2.49,1.83-4.11,1.92h-20.28c3.73-2.3,6-6.21,6.16-10.54V0s5.16,0,5.16,0c.2,1.88,1.2,3.48,2.65,4.64.84.67,1.72,1.19,2.66,1.71.84.48,1.64.94,2.41,1.54,1.52,1.18,2.45,2.92,2.53,4.88l.03,4.95h-1.71c-.17-2.01-1.26-3.68-2.89-4.77-.82-.56-1.7-.9-2.66-1.21-1.06-.34-2.03-.77-3-1.45Z"/>
  </g>
</svg>