<?xml version="1.0" encoding="UTF-8"?><svg id="Layer_2" xmlns="http://www.w3.org/2000/svg" viewBox="0 0 816.39 186.16"><g id="Layer_1-2"><path d="M135.32,50.12c25.92,0,38.64,13.44,38.64,47.76v79.92h-14.4v-86.16c0-18.96-7.92-28.56-25.92-28.56-19.68,0-36.96,11.76-36.96,48.24v66.48h-14.4v-86.88c0-18.72-7.92-27.84-26.4-27.84s-36.48,11.52-36.48,46.56v68.16H5V53.48h14.4v18.72h.48c7.68-14.16,22.08-22.08,38.64-22.08,17.52,0,29.76,6.48,36.24,24,8.4-16.08,22.56-24,40.56-24Z" fill="#fff" stroke="#fff" stroke-miterlimit="10" stroke-width="10"/><path d="M312.2,119h-96.48c0,30.48,16.8,49.2,41.76,49.2,19.2,0,33.6-11.04,37.68-28.56h16.08c-8.88,28.56-26.16,41.52-53.76,41.52-36.72,0-57.12-24.72-57.12-64.8s23.52-66.24,57.12-66.24,54.72,24.48,54.72,68.88ZM296.84,107c-.24-26.64-15.36-43.92-39.6-43.92-22.08,0-37.68,16.08-41.52,43.92h81.12Z" fill="#fff" stroke="#fff" stroke-miterlimit="10" stroke-width="10"/><path d="M342.44,5h14.4v172.8h-14.4V5Z" fill="#fff" stroke="#fff" stroke-miterlimit="10" stroke-width="10"/><path d="M500.6,115.64c0,39.36-23.04,65.52-57.36,65.52s-57.84-23.76-57.84-65.52c0-38.64,21.36-65.52,57.6-65.52s57.6,25.92,57.6,65.52ZM443,168.2c27.36,0,42.24-22.08,42.24-52.08,0-32.64-13.92-53.04-42.48-53.04-25.92,0-42,20.64-42,52.56s16.08,52.56,42.24,52.56Z" fill="#fff" stroke="#fff" stroke-miterlimit="10" stroke-width="10"/><path d="M593,5c28.08,0,47.76,7.92,59.52,24,11.76,16.08,17.76,36.72,17.76,62.16,0,47.28-18.96,86.64-78.24,86.64h-62.88V5h63.84ZM587.96,163.88c51.6,0,66-31.2,66-72.72s-16.08-72.24-62.64-72.24h-45.84v144.96h42.48Z" fill="#fff" stroke="#fff" stroke-miterlimit="10" stroke-width="10"/><path d="M718.75,5v158.88h92.64v13.92h-108.96V5h16.32Z" fill="#fff" stroke="#fff" stroke-miterlimit="10" stroke-width="10"/></g></svg>